# xmcd
#
# Track frame offsets:
#	150
#	25038
#	54238
#	85738
#	108428
#	128767
#	157622
#	176398
#	198321
#	226757
#
# Disc length: 3317
#
# Revision: 1
# Processed by: cddbd v1.5.1PL0 Copyright (c) Steve Scherf et al.
# Submitted via: FreeRIP 2.91 
# Normalized: r0:TRMNUM
#
DISCID=640cf30a
DTITLE=Nature and Blues Guitar
DYEAR=2001
DGENRE=Blues
TTITLE0=Cajun Song
TTITLE1=Natural Blues
TTITLE2=On the road
TTITLE3=Desert Tracks
TTITLE4=Bird Blues
TTITLE5=Stormy Tuesday
TTITLE6=Windswept
TTITLE7=Deep South
TTITLE8=Prowling Wolf
TTITLE9=Round Midnight
EXTD=
EXTT0=
EXTT1=
EXTT2=
EXTT3=
EXTT4=
EXTT5=
EXTT6=
EXTT7=
EXTT8=
EXTT9=
PLAYORDER=
